<svg id="Layer_2" data-name="Layer 2" xmlns="http://www.w3.org/2000/svg" viewBox="0 0 128 128"><title>BOOT</title><path d="M10.25,6.75A1.75,1.75,0,0,0,8.5,8.5v3.514a1.75,1.75,0,0,0,3.5,0V8.5A1.75,1.75,0,0,0,10.25,6.75Z"/><path d="M20.417,12.014V8.5a1.75,1.75,0,0,0-3.5,0v3.514a1.75,1.75,0,0,0,3.5,0Z"/><path d="M27.083,13.764a1.75,1.75,0,0,0,1.75-1.75V8.5a1.75,1.75,0,0,0-3.5,0v3.514A1.751,1.751,0,0,0,27.083,13.764Z"/><path d="M35.5,13.764a1.751,1.751,0,0,0,1.75-1.75V8.5a1.75,1.75,0,0,0-3.5,0v3.514A1.751,1.751,0,0,0,35.5,13.764Z"/><path d="M43.917,13.764a1.751,1.751,0,0,0,1.75-1.75V8.5a1.75,1.75,0,0,0-3.5,0v3.514A1.75,1.75,0,0,0,43.917,13.764Z"/><path d="M52.333,13.764a1.75,1.75,0,0,0,1.75-1.75V8.5a1.75,1.75,0,0,0-3.5,0v3.514A1.751,1.751,0,0,0,52.333,13.764Z"/><path d="M60.75,13.764a1.751,1.751,0,0,0,1.75-1.75V8.5a1.75,1.75,0,0,0-3.5,0v3.514A1.751,1.751,0,0,0,60.75,13.764Z"/><path d="M112.908,77.888,78.413,66.8A18.28,18.28,0,0,1,65.75,49.422V20.488A5.754,5.754,0,0,0,71,14.764V5.75A5.756,5.756,0,0,0,65.25,0H1.75A1.75,1.75,0,0,0,0,1.75v124.5A1.75,1.75,0,0,0,1.75,128H34.409a1.751,1.751,0,0,0,.9-.249L44.9,122H63.083l9.592,5.756a1.751,1.751,0,0,0,.9.249H126.25a1.749,1.749,0,0,0,1.75-1.75V98.594A21.684,21.684,0,0,0,112.908,77.888Zm-1.072,3.332A18.194,18.194,0,0,1,124.5,98.594v5.89H53.417V82.748l11.051-7.676,2.481-1.723,6.821-4.738a21.686,21.686,0,0,0,3.572,1.517ZM33.872,104.484,24.389,92.105A1.753,1.753,0,0,0,23,91.42H3.5V72.5L19.558,63a1.75,1.75,0,0,0,.859-1.506V20.514H50.583V62.5a1.75,1.75,0,0,0,.513,1.237l9.655,9.656-10.083,7a1.749,1.749,0,0,0-.751,1.437v22.651ZM3.5,20.514H16.917v39.98L3.5,68.432Zm58.75,0v7.361H54.083V20.514ZM54.083,31.375H62.25v8.25H54.083ZM70.6,66.549l-6.931,4.814-9.589-9.589V43.125H62.25v6.3A21.879,21.879,0,0,0,70.6,66.549ZM3.5,3.5H65.25A2.253,2.253,0,0,1,67.5,5.75v9.014a2.253,2.253,0,0,1-2.25,2.25H3.5Zm121,121h-7.335v-7.583a1.75,1.75,0,0,0-3.5,0V124.5h-6.917v-7.583a1.75,1.75,0,0,0-3.5,0V124.5H96.332v-7.583a1.75,1.75,0,0,0-3.5,0V124.5H85.915v-7.583a1.75,1.75,0,0,0-3.5,0V124.5H74.06l-9.592-5.756a1.752,1.752,0,0,0-.9-.249H44.417a1.752,1.752,0,0,0-.9.249L33.924,124.5H23.75v-7.583a1.75,1.75,0,0,0-3.5,0V124.5H13.333v-7.583a1.75,1.75,0,0,0-3.5,0V124.5H3.5V94.92H22.136L31.619,107.3a1.752,1.752,0,0,0,1.389.685H124.5Z"/></svg>