<?xml version="1.0" encoding="utf-8"?>
<!-- Generator: Adobe Illustrator 17.0.0, SVG Export Plug-In . SVG Version: 6.00 Build 0)  -->
<!DOCTYPE svg PUBLIC "-//W3C//DTD SVG 1.1//EN" "http://www.w3.org/Graphics/SVG/1.1/DTD/svg11.dtd">
<svg version="1.1" xmlns="http://www.w3.org/2000/svg" xmlns:xlink="http://www.w3.org/1999/xlink" x="0px" y="0px" width="512px"
	 height="512px" viewBox="0 0 512 512" enable-background="new 0 0 512 512" xml:space="preserve">
<g id="famous_places">
	<g id="Pyramid">
	</g>
	<g id="Colloseum">
	</g>
	<g id="Mount_Fuji">
	</g>
	<g id="Great_Wall_of_China">
	</g>
	<g id="Stonehenge">
	</g>
	<g id="Golden_Gate_Bridge">
	</g>
	<g id="Christ_the_Redeemer">
	</g>
	<g id="Statue_of_Liberty">
	</g>
	<g id="Taj_Mahal">
	</g>
	<g id="Eiffel_tower">
	</g>
</g>
<g id="camping">
	<g id="mug">
	</g>
	<g id="hook">
	</g>
	<g id="Swiss_knife">
	</g>
	<g id="flashlight">
	</g>
	<g id="lantern">
	</g>
	<g id="campfire">
	</g>
	<g id="beanie">
	</g>
	<g id="rope">
	</g>
	<g id="boot">
		<g>
			<path fill="#8A532D" d="M230,167.068v56.25c0,15.602,12.898,29.25,28.5,29.25h7.5v-165.5c0-3.866-2.884-6.5-6.75-6.5h-159
				c-3.866,0-7.25,2.634-7.25,6.5v36.5h93.25C210.551,123.567,230,142.767,230,167.068z"/>
			<path fill="#FF9B29" d="M201.25,155.483l9.933-23.223c4.59-10.732,15.138-17.692,26.81-17.692h27.757v164l-58-10.042
				L201.25,155.483z"/>
			<path fill="#FFD161" d="M283.903,296.068h-2.653c-3.866,0-7-3.134-7-7v-21.25c0-8.698-7.051-15.75-15.75-15.75h0
				c-15.602,0-28.25-12.648-28.25-28.25v-56.75c0-24.301-19.699-44-44-44H95.172c-4.375,0-7.922,3.547-7.922,7.922v165.078
				l-0.492,0.967c-8.879,17.441-13.508,36.735-13.508,56.307v62.726c0,3.866,3.134,7,7,7h352.5c3.59,0,6.5-2.91,6.5-6.5v-15.153
				C439.25,343.233,437.75,296.068,283.903,296.068z"/>
			<rect x="72.75" y="388.458" fill="#FF9B29" width="366" height="34.61"/>
			<path fill="#B0B0B0" d="M73,407.568v35.75v3.5v2.75h0.341c0.012,0,0.024,0.069,0.038,0.25c0.858,6,6.398,10.75,13.121,10.75H88
				c6.723,0,12.263-4.75,13.121-10.75c0.014-0.181,0.026-0.25,0.038-0.25H101v-2.75v-3.5v-1.987c0-6.22,6.545-10.763,14.166-10.763
				h0.521c7.62,0,12.314,4.542,12.314,10.763v7.475v0.763h0.269c0.207,6,7.501,11,15.013,11h0.521c7.512,0,13.268-5,13.431-11H157
				v-0.763v-7.475c0-6.22,6.779-10.763,14.4-10.763h0.521c7.621,0,14.079,4.542,14.079,10.763v7.475v0.763h0.265
				c0.158,6,5.74,11,13.252,11h0.521c7.512,0,14.011-5,14.195-11H214v-0.763v-7.475c0-6.22,6.014-10.763,13.635-10.763h0.521
				c7.62,0,12.845,4.542,12.845,10.763v7.475v0.763h0.268c0.192,6,6.972,11,14.484,11h0.521c7.512,0,13.783-5,13.961-11H270v-0.763
				v-7.475c0-6.22,6.203-10.763,13.823-10.763h0.521c7.62,0,13.656,4.542,13.656,10.763v7.475v0.763h0.266
				c0.17,6,6.163,11,13.675,11h0.521c7.512,0,13.6-5,13.772-11H326v-0.763v-7.475c0-6.22,6.437-10.763,14.058-10.763h0.521
				c7.621,0,12.421,4.542,12.421,10.763v7.475v0.763h0.269c0.204,6,7.394,11,14.906,11h0.521c7.512,0,14.342-5,14.536-11H383v-0.763
				v0.763h0.379c-0.076-1-0.379-2.155-0.379-2.75v-3.5c0-7.318,6.182-12.75,13.5-12.75h1.5c7.318,0,13,5.432,13,12.75v3.5
				c0,0.595,0.197,1.75,0.121,2.75h0.219c0.012,0,0.024,0.069,0.038,0.25c0.858,6,6.398,10.75,13.121,10.75h1.5
				c6.723,0,12.263-4.75,13.121-10.75c0.014-0.181,0.026-0.25,0.038-0.25H439v-2.75v-3.5v-35.75H73z"/>
			<circle fill="#E3E3E3" cx="203.25" cy="170.068" r="13.5"/>
			<circle fill="#E3E3E3" cx="203.25" cy="217.068" r="13.5"/>
			<circle fill="#E3E3E3" cx="212.25" cy="269.068" r="13.5"/>
			
				<line fill="none" stroke="#8A532D" stroke-width="12" stroke-linecap="round" stroke-linejoin="round" stroke-miterlimit="10" x1="203" y1="170.568" x2="274" y2="170.568"/>
			
				<line fill="none" stroke="#8A532D" stroke-width="12" stroke-linecap="round" stroke-linejoin="round" stroke-miterlimit="10" x1="203" y1="217.568" x2="274" y2="217.568"/>
			<circle fill="#E3E3E3" cx="294.25" cy="321.068" r="13.5"/>
			<circle fill="#E3E3E3" cx="240.25" cy="321.068" r="13.5"/>
			<circle fill="#E3E3E3" cx="341.25" cy="321.068" r="13.5"/>
			
				<line fill="none" stroke="#8A532D" stroke-width="12" stroke-linecap="round" stroke-linejoin="round" stroke-miterlimit="10" x1="295" y1="321.568" x2="295" y2="295.568"/>
			
				<line fill="none" stroke="#8A532D" stroke-width="12" stroke-linecap="round" stroke-linejoin="round" stroke-miterlimit="10" x1="342" y1="321.568" x2="342" y2="295.568"/>
			
				<line fill="none" stroke="#8A532D" stroke-width="12" stroke-linecap="round" stroke-linejoin="round" stroke-miterlimit="10" x1="213" y1="269.568" x2="281" y2="269.568"/>
			
				<line fill="none" stroke="#8A532D" stroke-width="12" stroke-linecap="round" stroke-linejoin="round" stroke-miterlimit="10" x1="240.25" y1="321.068" x2="280.75" y2="286.568"/>
		</g>
	</g>
	<g id="axe">
	</g>
</g>
<g id="hotel_1_">
	<g id="towel">
	</g>
	<g id="phone">
	</g>
	<g id="pool">
	</g>
	<g id="food_service">
	</g>
	<g id="wifi">
	</g>
	<g id="bed">
	</g>
	<g id="door">
	</g>
	<g id="key">
	</g>
	<g id="do_not_disturb">
	</g>
	<g id="bell">
	</g>
</g>
<g id="winter">
	<g id="snowman">
	</g>
	<g id="snow_mountain">
	</g>
	<g id="reindeer">
	</g>
	<g id="winter_tree">
	</g>
	<g id="lift">
	</g>
	<g id="beanie__x26__google">
	</g>
	<g id="ski">
	</g>
	<g id="snowboard">
	</g>
	<g id="snowboading">
	</g>
	<g id="skiing">
	</g>
</g>
<g id="general_travelling">
	<g id="dinner_set">
	</g>
	<g id="polaroid">
	</g>
	<g id="camera">
	</g>
	<g id="calendar">
	</g>
	<g id="calendar_single">
	</g>
	<g id="shopping_bag">
	</g>
	<g id="watch">
	</g>
	<g id="alarm_clock">
	</g>
	<g id="credit_card">
	</g>
	<g id="road_sign">
	</g>
	<g id="hotel">
	</g>
	<g id="money">
	</g>
	<g id="sunglass">
	</g>
	<g id="cocktail">
	</g>
	<g id="compass">
	</g>
	<g id="tent">
	</g>
	<g id="backpack">
	</g>
	<g id="map">
	</g>
	<g id="ticket_1_">
	</g>
	<g id="passport">
	</g>
	<g id="luggage">
	</g>
	<g id="globe">
	</g>
	<g id="suitcase">
	</g>
</g>
<g id="vehicles">
	<g id="trailer">
	</g>
	<g id="airplane">
	</g>
	<g id="yatch">
	</g>
	<g id="taxi">
	</g>
	<g id="hot_air_ballon">
	</g>
	<g id="bus">
	</g>
	<g id="train">
	</g>
</g>
<g id="summer">
	<g id="postcard">
	</g>
	<g id="bikini">
	</g>
	<g id="flipflop">
	</g>
	<g id="plane_around_the_globe">
	</g>
	<g id="binocular">
	</g>
	<g id="beach_table">
	</g>
	<g id="sun_hat">
	</g>
	<g id="beach_bag">
	</g>
	<g id="sea__x26__wave">
	</g>
	<g id="beach">
	</g>
	<g id="beach_ball">
	</g>
	<g id="jetski">
	</g>
	<g id="sandcastle">
	</g>
	<g id="lifeguard_male">
	</g>
	<g id="lifeguard_female">
	</g>
	<g id="lighthouse">
	</g>
	<g id="hammok">
	</g>
	<g id="beach_chair__x26__umbrella">
	</g>
	<g id="lifeguard">
	</g>
	<g id="suncream">
	</g>
	<g id="starfish">
	</g>
	<g id="beach_bar">
	</g>
	<g id="bucket__x26__shovel">
	</g>
	<g id="palm_tree">
	</g>
	<g id="shark_warning">
	</g>
	<g id="surfboard">
	</g>
	<g id="swimming_trunks">
	</g>
	<g id="coconut_drink">
	</g>
	<g id="beach_chair__x26__towel">
	</g>
	<g id="coconut_tree">
	</g>
</g>
</svg>
